# xmcd CD database file
#
# Track frame offsets:
#	150
#	13444
#	25897
#	35892
#	50652
#	62364
#	77803
#	100510
#	115387
#	127605
#	144896
#	159494
#	172239
#	183832
#	196484
#	213900
#	232232
#	253634
#	268683
#	280033
#	303256
#	318330
#	332913
#	343345
#
# Disc length: 4728 seconds
#
# Revision: 1
# Processed by: cddbd v1.5PL3 Copyright (c) Steve Scherf et al.
# Submitted via: CDex 1.50beta10
#
DISCID=5f127618
DTITLE=Smoky Babe and Herman E. Johnson - Louisiana Country Blues
DYEAR=1996
DGENRE=Blues
TTITLE0=I'm Broke And I'm Hungry
TTITLE1=Too Many Women
TTITLE2=Two Wings
TTITLE3=Mississippi River
TTITLE4=My Baby She Told Me
TTITLE5=Rabbit Blues
TTITLE6=Black Ghost
TTITLE7=Ain't Got No Rabbit Dog
TTITLE8=Bad Whiskey
TTITLE9=Black Gal
TTITLE10=My Baby Put Me Down
TTITLE11=Going Back Home
TTITLE12=Regular Blues
TTITLE13=I Just Keep Wanting You
TTITLE14=You Don't Know My Mind
TTITLE15=Motherless Children
TTITLE16=Depression Blues
TTITLE17=She's A-Looking For Me
TTITLE18=She Had Been Drinking
TTITLE19=I'm Growing Older
TTITLE20=Po' Boy
TTITLE21=Leavin' Blues
TTITLE22=Piano Blues
TTITLE23=Where The Mansion's Prepared For Me
EXTD=YEAR: 1996
EXTT0=
EXTT1=
EXTT2=
EXTT3=
EXTT4=
EXTT5=
EXTT6=
EXTT7=
EXTT8=
EXTT9=
EXTT10=
EXTT11=
EXTT12=
EXTT13=
EXTT14=
EXTT15=
EXTT16=
EXTT17=
EXTT18=
EXTT19=
EXTT20=
EXTT21=
EXTT22=
EXTT23=
PLAYORDER=
